PathFileType  4	(X/Y/Z) C:\Users\antoi\Documents\MyRepositories\mobilecap\ResultsAnalysis
DataRate	CameraRate	NumFrames	NumMarkers	Units	OrigDataRate	OrigDataStartFrame	OrigNumFrames
100.0	100.0	5	51	mm	100.0	43	170
Frame#	Time	r_knee			r_shank_antsup			r_ankle			r_calc			r_5meta			r_toe			L_knee			L_shank_antsup			L_ankle			L_calc			L_5meta			L_toe			r_sh2			r_sh3			r_sh4			L_sh2			L_sh3			r_thigh1			r_thigh2			r_thigh3			r_thigh4			r_thigh5			L_thigh1			L_thigh2			L_thigh3			L_thigh4			r.ASIS			r.PSIS			L.ASIS			L.PSIS			C7			R_Shoulder			L_Shoulder			R_Sternum			L_Sternum			R_humerus			R_elbow_med			R_elbow_lat			R_forearm			R_wrist_radius			R_wrist_ulna			L_humerus			L_elbow_med			L_elbow_lat			L_forearm			L_wrist_radius			L_wrist_ulna			R_HJC			L_HJC			R_HJC_reg			L_HJC_reg			
		X1	Y1	Z1	X2	Y2	Z2	X3	Y3	Z3	X4	Y4	Z4	X5	Y5	Z5	X6	Y6	Z6	X7	Y7	Z7	X8	Y8	Z8	X9	Y9	Z9	X10	Y10	Z10	X11	Y11	Z11	X12	Y12	Z12	X13	Y13	Z13	X14	Y14	Z14	X15	Y15	Z15	X16	Y16	Z16	X17	Y17	Z17	X18	Y18	Z18	X19	Y19	Z19	X20	Y20	Z20	X21	Y21	Z21	X22	Y22	Z22	X23	Y23	Z23	X24	Y24	Z24	X25	Y25	Z25	X26	Y26	Z26	X27	Y27	Z27	X28	Y28	Z28	X29	Y29	Z29	X30	Y30	Z30	X31	Y31	Z31	X32	Y32	Z32	X33	Y33	Z33	X34	Y34	Z34	X35	Y35	Z35	X36	Y36	Z36	X37	Y37	Z37	X38	Y38	Z38	X39	Y39	Z39	X40	Y40	Z40	X41	Y41	Z41	X42	Y42	Z42	X43	Y43	Z43	X44	Y44	Z44	X45	Y45	Z45	X46	Y46	Z46	X47	Y47	Z47	X48	Y48	Z48	X49	Y49	Z49	X50	Y50	Z50	X51	Y51	Z51	

43	0.42000000	222.79388	487.92108	-46.38251	256.79307	439.21892	-56.15572	143.16555	90.55749	-92.86526	85.21873	59.18692	-141.97123	288.68014	34.63291	-55.90134	313.04845	59.07067	-115.47494	328.00041	513.36162	-343.23665	328.88703	427.10501	-357.24328	154.81738	158.21709	-305.22302	91.64952	138.53449	-245.58073	245.68947	60.64393	-340.73519	301.10342	70.51398	-297.01676	241.81408	326.46658	-73.90358	191.39307	439.48738	-20.15777	173.81802	325.37312	-22.22601	250.74655	474.01518	-357.62906	198.71250	363.63573	-349.84325	301.68601	783.28068	-104.63448	308.90334	670.70883	-98.33260	301.85641	651.60778	-34.79795	246.21016	780.97387	-6.09353	253.76303	668.35308	-4.39506	256.13466	823.89962	-366.52673	309.29690	692.04275	-376.03425	151.98666	781.03695	-360.38919	202.49731	656.21107	-347.26533	288.82138	950.90806	-71.76144	93.67536	1003.80764	-132.87274	271.87238	952.77398	-302.76823	82.95558	1002.37789	-230.54869	196.53007	1455.03266	-102.69880	261.18133	1370.52491	48.69311	256.32033	1417.69290	-275.77140	294.02610	1340.74646	-104.21871	294.23298	1344.12623	-142.65774	260.16799	1121.85768	85.68549	191.68349	1039.96242	50.92622	231.11928	1031.62644	99.37470	303.22671	904.90254	80.91675	345.38921	817.46464	43.27855	311.60960	804.60686	74.35531	212.93254	1204.82910	-393.91728	144.36953	1106.85907	-369.02434	169.61795	1115.47770	-422.38944	230.44831	986.23176	-453.40415	268.85847	883.14217	-444.67391	233.46593	878.18068	-470.40519	204.39479	877.06190	-101.47663	180.92565	888.21692	-290.36935	212.38234	891.81549	-94.67621	195.70616	889.59135	-246.62622	
44	0.43000000	225.49475	487.69950	-46.08589	259.06352	438.75114	-56.05123	143.35960	90.65421	-92.98722	85.21719	59.34868	-141.97903	288.73183	34.60645	-55.90016	313.16579	58.95013	-115.52539	339.78532	514.57474	-342.42787	344.09652	428.11793	-356.24518	181.69009	151.88994	-304.04296	119.20818	129.59018	-244.46686	276.89668	58.36496	-339.03934	331.34013	70.66808	-294.95473	243.48840	326.10567	-73.89304	193.81113	439.29404	-19.80161	175.64068	325.27856	-21.92212	264.03924	471.61345	-356.98427	216.78492	359.24245	-349.22569	309.02190	782.17589	-104.69953	313.79951	669.21858	-98.47644	307.18606	650.38671	-34.97514	253.62229	780.57899	-6.06215	258.77032	667.64698	-3.79014	264.74568	824.49014	-366.21740	319.26879	693.22524	-375.37702	161.16969	780.90248	-359.80332	212.69973	656.57381	-346.51474	297.33671	950.79237	-71.56463	102.12632	1003.68203	-132.28258	280.14827	952.90194	-302.65763	91.22691	1002.19793	-229.92803	204.73677	1455.37635	-104.10108	269.64898	1371.70553	47.68751	264.22313	1416.97491	-277.12028	302.14118	1341.03995	-105.16438	302.39791	1344.20095	-143.63184	269.06508	1123.14410	85.52414	200.54267	1041.01556	51.26812	239.94571	1032.96479	99.72962	312.59291	906.39229	81.09120	354.97532	819.06361	43.47012	321.37554	806.06919	74.66051	219.92109	1203.68972	-394.17676	151.36355	1105.97229	-368.53716	176.25662	1114.38527	-422.08340	235.94135	984.74536	-453.42991	273.64138	881.30381	-444.88734	238.03355	876.65208	-470.39046	212.99019	876.92059	-101.23262	189.20446	888.24842	-290.07447	220.93326	891.85683	-94.32663	203.96806	889.54686	-246.31312	
45	0.44000000	228.30129	487.45916	-45.73530	261.43939	438.28299	-55.82462	143.49751	90.80224	-93.07426	85.19807	59.53518	-141.99520	288.78553	34.56305	-55.89307	313.32174	58.83491	-115.55599	351.25222	515.54686	-341.81728	359.05792	429.01837	-355.37957	208.79249	145.86179	-302.86282	147.03072	121.06493	-243.37571	308.12395	56.51038	-337.21256	361.39922	71.26322	-292.74583	245.23685	325.72758	-73.78747	196.32207	439.11217	-19.41534	177.49596	325.20312	-21.58234	277.24563	468.95591	-356.50270	234.86404	354.84018	-348.75247	316.43202	780.94972	-104.57182	319.18099	667.78729	-98.40244	312.56844	649.14602	-34.92951	261.02225	780.11751	-5.95097	263.86027	666.96717	-3.14252	273.29997	824.88331	-365.98698	328.94416	694.11839	-374.89260	170.20124	780.70966	-359.12418	222.62863	656.75347	-345.77637	305.94891	950.60314	-71.40331	110.66929	1003.43404	-131.65533	288.42547	952.88861	-302.59892	99.54314	1001.87675	-229.27105	212.90878	1455.60717	-105.60697	278.13437	1372.79063	46.56378	272.02218	1416.16627	-278.59981	310.26044	1341.25961	-106.24600	310.52600	1344.19181	-144.74217	277.89773	1124.32821	85.32077	209.42284	1041.94722	51.57447	248.89841	1034.13027	99.99167	321.86932	907.76230	81.27217	364.43564	820.52608	43.68181	330.99187	807.43220	75.00467	226.82961	1202.41960	-394.49596	158.35193	1104.92440	-368.02451	182.85075	1113.13158	-421.76571	241.39845	983.11153	-453.42402	278.37315	879.32693	-445.05305	242.55449	874.98322	-470.32181	221.69252	876.68363	-100.97579	197.50296	888.13255	-289.75833	229.59085	891.78908	-93.97067	212.26239	889.36382	-245.99991	
46	0.45000000	231.18708	487.21227	-45.33193	263.88739	437.82174	-55.45315	143.56392	91.02342	-93.11829	85.18541	59.74691	-142.02413	288.83974	34.50356	-55.88081	313.50212	58.71075	-115.56945	362.42222	516.27700	-341.40367	373.75833	429.81846	-354.70738	236.07623	140.19645	-301.71999	175.09919	113.01450	-242.34383	339.29842	55.11118	-335.31906	391.29483	72.28789	-290.49601	247.02411	325.33816	-73.55648	198.86135	438.96466	-19.01446	179.32611	325.16845	-21.22176	290.36200	466.08823	-356.15120	252.92900	350.45838	-348.38286	323.94243	779.62737	-104.24490	324.95053	666.38644	-98.11942	318.00057	647.89490	-34.66480	268.40822	779.59407	-5.76627	269.12502	666.30433	-2.54304	281.84282	825.11140	-365.84243	338.35227	694.72323	-374.59982	179.08327	780.47843	-358.36888	232.30494	656.76113	-345.08660	314.64910	950.36045	-71.23369	119.28512	1003.06393	-131.00269	296.73581	952.74413	-302.54695	107.90943	1001.41946	-228.58753	221.05737	1455.73425	-107.21625	286.65569	1373.78981	45.31693	279.72456	1415.28207	-280.20914	318.35957	1341.41465	-107.46719	318.62650	1344.10992	-145.99530	286.69594	1125.42474	85.06717	218.32925	1042.76375	51.85274	257.96451	1035.15583	100.18090	331.07127	909.01929	81.45714	373.77195	821.84849	43.90629	340.46282	808.70491	75.39069	233.66342	1201.03601	-394.87743	165.31866	1103.75364	-367.49475	189.39227	1111.74250	-421.44478	246.83021	981.35480	-453.38936	283.06868	877.24260	-445.16662	247.06144	873.19540	-470.19480	230.49282	876.36457	-100.68104	205.85585	887.87409	-289.40179	238.35022	891.61378	-93.58533	220.62148	889.05119	-245.66479	
47	0.46000000	234.12889	486.97264	-44.87345	266.38277	437.36492	-54.93331	143.55765	91.33196	-93.11461	85.19925	59.98587	-142.06463	288.89706	34.42893	-55.86522	313.68694	58.56488	-115.57125	373.32133	516.76399	-341.17554	388.18895	430.52814	-354.28796	263.47474	134.97061	-300.66673	203.36584	105.52418	-241.41952	370.33700	54.19280	-333.44223	421.02922	73.72568	-288.31752	248.82028	324.94337	-73.18269	201.36584	438.87462	-18.59671	181.08933	325.19270	-20.84959	303.37148	463.06765	-355.90421	270.95957	346.11879	-348.07642	331.58104	778.24779	-103.72576	331.04495	665.00875	-97.63977	323.48733	646.64809	-34.20116	275.78878	779.01540	-5.52467	274.59993	665.65296	-2.03176	290.39412	825.20854	-365.77960	347.54459	695.06503	-374.49815	187.82754	780.22111	-357.55632	241.76566	656.62248	-344.46933	323.42392	950.07929	-71.02097	127.95581	1002.57861	-130.34220	305.11329	952.47945	-302.46086	116.33789	1000.83183	-227.89133	229.19490	1455.76666	-108.92707	295.20961	1374.72140	43.95673	287.34141	1414.33454	-281.94566	326.40923	1341.51014	-108.82800	326.71883	1343.96548	-147.39530	295.48941	1126.44899	84.75476	227.24795	1043.48550	52.10981	267.09974	1036.08756	100.31105	340.20679	910.17184	81.64168	382.98284	823.02845	44.13927	349.79794	809.89054	75.81705	240.43204	1199.55564	-395.32275	172.24535	1102.50385	-366.96485	195.87306	1110.24674	-421.13282	252.24598	979.49864	-453.33257	287.74933	875.08008	-445.22906	251.58339	871.30933	-470.01239	239.37911	875.97572	-100.33022	214.29749	887.48037	-288.99294	247.19641	891.34321	-93.15570	229.07670	888.61926	-245.29164	
